<svg width="573" height="248" viewBox="0 0 573 248" fill="none"
	xmlns="http://www.w3.org/2000/svg">
	<g>
		<path d="M12.4029 88.6396C24.3015 36.1525 71.8501 -0.450703 125.635 1.47295L307.56 7.97966C313.72 8.19997 319.828 9.18899 325.742 10.9237L489.742 59.026C524.348 69.1762 550.917 97.0083 559.449 132.048L570.243 176.38C577.359 205.603 556.154 234.096 526.118 235.67L308.865 247.056C288.026 248.148 267.157 245.567 247.212 239.432L135.791 205.156C119.481 200.139 102.208 199.095 85.4122 202.112L73.1222 204.32C30.1283 212.043 -6.81098 173.395 2.84656 130.794L12.4029 88.6396Z" fill="#6E00FF"/>
		<path d="M111.678 113.831C110.157 113.989 108.125 114.001 105.581 113.868L105.226 113.849L103.475 147.262C104.04 147.232 104.589 147.231 105.121 147.259C106.186 147.315 107.118 147.364 107.917 147.406C108.715 147.447 109.379 147.512 109.909 147.599L111.678 113.831ZM112.118 95.2556C112.166 94.3386 111.881 93.5524 111.263 92.8971C110.676 92.2137 109.924 91.848 109.007 91.8C108.089 91.7519 107.303 92.037 106.648 92.6552C105.994 93.2439 105.643 93.9967 105.595 94.9138C105.547 95.8308 105.817 96.6162 106.406 97.27C106.995 97.9238 107.748 98.2747 108.665 98.3227C109.582 98.3708 110.367 98.1005 111.021 97.5118C111.704 96.9247 112.07 96.1727 112.118 95.2556ZM120.153 154.187C115.323 152.955 110.793 152.228 106.563 152.007C102.333 151.785 97.7518 152.034 92.8196 152.755C92.1392 152.719 91.5903 152.438 91.173 151.912C90.7852 151.387 90.606 150.844 90.6355 150.282C90.6649 149.72 90.854 149.226 91.2026 148.799C91.5809 148.374 92.1584 148.107 92.9353 148C93.7433 147.864 94.6681 147.764 95.7097 147.7C96.7824 147.608 97.8255 147.514 98.839 147.419L100.62 113.43L93.8172 112.495C93.2302 112.375 92.756 112.083 92.3947 111.619C92.063 111.157 91.9142 110.6 91.9483 109.95C91.984 109.269 92.2781 108.751 92.8307 108.394C93.3833 108.037 93.9111 107.872 94.414 107.899L94.6802 107.913C94.7098 107.914 95.0477 107.976 95.6938 108.099C96.3415 108.192 97.1807 108.311 98.2114 108.454C101.009 108.838 103.577 109.091 105.914 109.213C109.168 109.384 111.813 109.285 113.849 108.917L114.337 108.943C115.018 108.978 115.567 109.245 115.986 109.741C116.407 110.208 116.601 110.737 116.57 111.329L114.547 148.242C115.575 148.445 116.602 148.647 117.63 148.849C118.689 149.023 119.627 149.221 120.446 149.442C121.969 149.818 122.697 150.642 122.631 151.914C122.595 152.595 122.314 153.143 121.788 153.561C121.26 154.008 120.715 154.217 120.153 154.187ZM116.777 95.4998C116.661 97.7184 115.794 99.5418 114.177 100.97C112.499 102.424 110.58 103.095 108.42 102.982C106.231 102.867 104.408 102 102.95 100.381C101.493 98.7626 100.821 96.8587 100.936 94.6696C101.051 92.4806 101.918 90.6572 103.536 89.1996C105.155 87.7419 107.059 87.0705 109.248 87.1852C111.408 87.2984 113.246 88.1659 114.763 89.7879C116.222 91.3772 116.893 93.2812 116.777 95.4998ZM153.049 96.1104C150.972 96.1202 148.854 96.0685 146.695 95.9553L143.869 149.868C144.908 149.863 145.959 149.889 147.024 149.945C148.119 150.002 149.185 150.028 150.224 150.023L153.049 96.1104ZM156.125 150.333C164.083 150.75 171.201 151.33 177.48 152.075L179.701 140.266C179.85 139.681 180.141 139.222 180.574 138.888C181.038 138.527 181.581 138.363 182.202 138.395C182.853 138.429 183.372 138.709 183.76 139.233C184.177 139.759 184.373 140.274 184.346 140.777L184.328 141.132L181.682 155.098C181.563 155.685 181.272 156.144 180.809 156.476C180.345 156.837 179.818 157.003 179.226 156.972L179.137 156.967C171.208 156.017 163.427 155.343 155.795 154.943C148.163 154.543 140.768 154.422 133.611 154.581L133.389 154.569C132.712 154.474 132.162 154.208 131.74 153.771C131.318 153.334 131.123 152.804 131.156 152.183C131.19 151.532 131.425 151.011 131.861 150.618C132.298 150.196 132.903 149.976 133.675 149.957C134.479 149.91 135.354 149.897 136.302 149.917C137.282 149.909 138.246 149.9 139.196 149.89L142.031 95.7999C141.087 95.6911 140.142 95.6119 139.196 95.5623L136.4 95.4158C135.782 95.3241 135.262 95.0596 134.84 94.6222C134.419 94.1552 134.226 93.5963 134.26 92.9455C134.294 92.2947 134.56 91.7598 135.056 91.3409C135.554 90.8924 136.232 90.7054 137.088 90.78C137.974 90.856 138.935 90.9212 139.97 90.9755L143.12 91.1406C155.633 91.7964 168.086 91.6184 180.479 90.6068L180.879 90.6277C181.47 90.6587 181.962 90.8922 182.355 91.328C182.749 91.7343 182.976 92.206 183.037 92.7431L184.159 107.841L184.143 108.152C184.107 108.832 183.827 109.366 183.302 109.754C182.807 110.143 182.264 110.322 181.672 110.291C181.11 110.262 180.617 110.058 180.192 109.68C179.798 109.274 179.557 108.772 179.47 108.174L178.535 95.4438C172.636 95.9355 165.697 96.18 157.718 96.1771L156.185 125.419C162.559 125.486 167.554 125.273 171.169 124.78L171.612 124.803C172.234 124.836 172.769 125.101 173.217 125.599C173.667 126.068 173.877 126.598 173.846 127.19C173.781 128.432 173.103 129.183 171.814 129.441C168.288 129.939 162.997 130.151 155.941 130.078L154.883 150.267L156.125 150.333ZM248.833 101.308C238.394 105.804 232.817 114.87 232.102 128.507C231.624 137.619 233.91 144.665 238.959 149.646C240.622 151.305 242.618 152.833 244.947 154.231C240.238 147.874 238.189 138.867 238.799 127.212C239.406 115.646 242.75 107.011 248.833 101.308ZM263.22 94.2311C271.473 94.6637 277.875 97.8913 282.424 103.914L285.232 97.031C285.674 95.9566 286.323 95.4419 287.181 95.4869C288.039 95.5319 288.677 95.8174 289.094 96.3436C289.543 96.8417 289.755 97.3126 289.732 97.7563C289.71 98.1705 289.634 98.4928 289.503 98.7232L281.367 118.987C281.018 119.977 280.371 120.447 279.424 120.398C278.507 120.35 277.84 120.063 277.423 119.536C277.005 119.01 276.806 118.57 276.824 118.215C276.845 117.83 276.92 117.523 277.051 117.292L280.325 109.143C278.022 104.988 274.808 102.061 270.685 100.362C269.32 99.816 267.602 99.4887 265.531 99.3801C263.49 99.2732 261.383 99.578 259.209 100.295C257.066 101.013 255.158 102.04 253.486 103.376C251.844 104.714 250.41 106.315 249.185 108.179C247.962 110.013 246.953 111.992 246.16 114.116C244.615 118.129 243.714 122.575 243.459 127.456C243.082 134.645 243.875 141.019 245.838 146.58C247.363 150.872 249.677 153.989 252.778 155.932C254.387 156.936 256.374 157.5 258.741 157.624C261.137 157.749 263.508 157.503 265.854 156.884C268.23 156.267 270.401 155.313 272.367 154.022C276.511 151.362 279.505 147.722 281.349 143.102C281.738 141.906 282.391 141.332 283.308 141.38C284.225 141.428 284.892 141.715 285.309 142.242C285.727 142.768 285.92 143.327 285.889 143.918L285.861 144.451C285.828 144.508 285.709 144.799 285.504 145.322C285.328 145.847 285.04 146.529 284.64 147.368C281.497 153.581 276.702 157.912 270.255 160.363C266.382 161.821 262.139 162.4 257.528 162.098C252.944 161.829 248.681 160.819 244.738 159.07C240.827 157.293 237.555 154.926 234.921 151.97C229.425 145.898 226.933 137.996 227.443 128.263C228.098 115.75 232.286 106.596 240.006 100.801C246.519 95.9514 254.257 93.7614 263.22 94.2311ZM315.207 104.876C313.686 105.033 311.638 105.045 309.065 104.91L308.71 104.891L305.966 157.251C306.531 157.221 307.08 157.22 307.612 157.248C308.677 157.304 309.609 157.353 310.408 157.395C311.206 157.437 311.885 157.502 312.444 157.59L315.207 104.876ZM318.871 124.957C322.516 119.927 327.252 117.565 333.08 117.87C338.819 118.171 342.969 120.48 345.531 124.797C347.742 128.472 348.692 133.268 348.381 139.184C348.073 145.071 346.94 151.686 344.983 159.029C346.847 159.126 348.351 159.294 349.495 159.532C351.432 159.93 352.366 160.795 352.296 162.126C352.262 162.777 351.981 163.326 351.453 163.773C350.926 164.22 350.484 164.434 350.129 164.415C349.774 164.397 349.334 164.314 348.807 164.168C345.145 163.294 340.344 163.22 334.403 163.947C334.34 164.003 334.28 164.03 334.221 164.027C334.161 164.023 333.94 164.012 333.555 163.992C333.2 163.973 332.813 163.715 332.394 163.219C331.977 162.693 331.783 162.149 331.812 161.587C331.881 160.285 332.558 159.534 333.844 159.335C335.967 159.001 338.096 158.846 340.231 158.869C342.25 151.47 343.398 145.123 343.676 139.828C344.093 131.87 342.395 126.635 338.581 124.121C337.119 123.154 335.456 122.622 333.592 122.525C331.758 122.429 330.222 122.6 328.983 123.04C327.773 123.48 326.628 124.103 325.548 124.906C324.498 125.682 323.53 126.61 322.643 127.691C321.756 128.771 320.999 129.903 320.374 131.087C319.026 133.597 318.29 136.035 318.166 138.402L317.04 158.187C318.837 158.43 320.466 158.752 321.928 159.155C323.422 159.53 324.334 159.949 324.666 160.411C324.999 160.844 325.149 161.371 325.117 161.992C325.084 162.613 324.806 163.118 324.281 163.506C323.786 163.895 323.243 164.074 322.651 164.043L322.207 164.02C317.315 162.844 312.917 162.154 309.012 161.949C305.107 161.744 300.69 161.973 295.761 162.634L295.318 162.611C294.637 162.575 294.087 162.324 293.666 161.857C293.277 161.362 293.097 160.833 293.126 160.271C293.157 159.679 293.347 159.185 293.694 158.788C294.072 158.363 294.649 158.097 295.426 157.989C296.234 157.853 297.16 157.739 298.203 157.645C299.276 157.553 300.319 157.459 301.332 157.364L304.104 104.472L297.299 103.581C296.712 103.461 296.238 103.17 295.876 102.706C295.545 102.243 295.396 101.687 295.43 101.036C295.466 100.356 295.76 99.8372 296.312 99.4805C296.865 99.1238 297.393 98.9587 297.896 98.9851L298.162 98.999C298.191 99.0006 298.529 99.0628 299.175 99.1856C299.823 99.2789 300.677 99.3978 301.737 99.5423C304.506 99.9247 307.058 100.177 309.395 100.3C312.649 100.47 315.309 100.372 317.375 100.006L317.819 100.029C318.499 100.065 319.049 100.331 319.468 100.828C319.888 101.295 320.083 101.824 320.052 102.415L318.871 124.957ZM392.169 151.757C392.103 150.745 392.1 149.677 392.159 148.553L390.517 148.467C385.666 148.213 380.857 148.851 376.09 150.381C369.996 152.316 366.84 155.369 366.622 159.54C366.541 161.078 367.174 162.313 368.519 163.243C369.637 163.984 371.128 164.403 372.991 164.501C374.855 164.599 376.74 164.297 378.645 163.596C380.582 162.867 382.383 161.894 384.049 160.676C387.012 158.458 389.719 155.485 392.169 151.757ZM402.286 163.322C402.421 162.439 402.559 160.667 402.698 158.005C402.838 155.342 402.911 152.81 402.919 150.407C402.957 147.977 402.858 145.629 402.62 143.362C402.383 141.095 401.962 138.952 401.355 136.933C400.749 134.913 399.878 133.147 398.741 131.634C396.216 128.298 392.558 126.505 387.766 126.254C387.677 126.249 387.602 126.275 387.539 126.331C387.479 126.357 387.404 126.368 387.315 126.364L387.493 126.373C392.12 129.196 394.988 133.633 396.094 139.683C396.721 143.008 396.986 146.151 396.891 149.113C396.826 152.046 396.749 154.356 396.661 156.042C396.521 158.704 396.263 161.375 395.885 164.055C398.038 163.723 400.172 163.478 402.286 163.322ZM409.766 163.225L412.957 163.481C413.604 163.574 414.109 163.853 414.47 164.317C414.861 164.782 415.039 165.34 415.005 165.991C414.973 166.612 414.722 167.148 414.254 167.598C413.815 168.05 413.27 168.258 412.619 168.224L412.441 168.215C411.942 168.129 411.426 168.073 410.893 168.045L409.34 167.963C403.927 167.68 398.653 168.13 393.518 169.314L392.892 169.371C392.212 169.335 391.664 169.039 391.248 168.484C390.86 167.959 390.68 167.43 390.708 166.898L390.727 166.543C390.73 166.484 390.835 165.896 391.042 164.78C391.25 163.634 391.482 162.044 391.737 160.011C385.38 166.411 378.962 169.441 372.483 169.102C369.496 168.945 366.995 167.984 364.981 166.217C362.825 164.354 361.811 162.18 361.942 159.695C362.072 157.21 362.655 155.149 363.69 153.513C364.754 151.878 366.103 150.48 367.736 149.32C369.37 148.13 371.2 147.173 373.226 146.449C375.282 145.696 377.36 145.108 379.458 144.684C383.354 143.939 387.121 143.662 390.759 143.852L391.824 143.908C392.021 140.151 390.995 136.805 388.746 133.869C386.357 130.778 383.343 129.137 379.705 128.946C376.983 128.803 374.366 130.06 371.854 132.717C369.406 135.288 368.104 138.053 367.949 141.011C367.918 141.602 367.64 142.092 367.115 142.48C366.622 142.84 366.065 143.003 365.443 142.971C364.822 142.938 364.287 142.673 363.839 142.175C363.392 141.647 363.195 140.88 363.247 139.874C363.3 138.869 363.618 137.61 364.202 136.098C364.787 134.556 365.591 133.071 366.616 131.641C367.671 130.184 368.914 128.825 370.344 127.565C371.804 126.307 373.449 125.207 375.278 124.264C379.179 122.274 383.082 121.381 386.987 121.585C390.922 121.792 394.03 122.474 396.313 123.631C398.625 124.791 400.519 126.299 401.993 128.156C403.498 130.015 404.647 132.137 405.442 134.522C406.236 136.907 406.802 139.413 407.139 142.041C407.665 146.162 407.761 151.403 407.427 157.763L407.055 163.172L409.766 163.225ZM441.048 167.356C439.128 165.505 438.237 163.263 438.375 160.631L441.043 109.735L434.602 111.222L432.307 155.018C431.969 161.467 433.752 165.357 437.657 166.689C438.766 167.044 439.896 167.266 441.048 167.356ZM444.906 125.155C448.581 125.229 452.275 125.215 455.988 125.113L456.165 125.122C456.816 125.156 457.351 125.421 457.77 125.918C458.19 126.385 458.385 126.914 458.354 127.506C458.323 128.098 458.088 128.619 457.649 129.071C457.241 129.494 456.74 129.72 456.145 129.748C451.601 129.866 447.773 129.888 444.662 129.814L443.034 160.875C442.941 162.65 443.778 163.954 445.543 164.788C446.036 165.022 446.607 165.156 447.258 165.19C447.938 165.225 448.541 165.049 449.065 164.661C449.621 164.246 450.093 163.722 450.482 163.089C451.001 162.256 451.438 161.271 451.794 160.133C452.333 158.351 453.223 157.493 454.465 157.558C455.146 157.594 455.679 157.889 456.065 158.443C456.483 158.969 456.677 159.499 456.649 160.031L456.624 160.519C455.56 164.409 453.714 167.367 451.086 169.395C448.46 171.393 445.298 172.295 441.601 172.101C434.915 171.751 430.547 168.778 428.497 163.183C427.692 161.005 427.379 158.2 427.559 154.769L428.915 128.9C427.588 128.741 426.247 128.582 424.891 128.422C423.564 128.263 422.416 128.099 421.446 127.93C419.68 127.659 418.834 126.829 418.907 125.439C418.942 124.758 419.223 124.224 419.747 123.836C420.301 123.45 420.845 123.271 421.377 123.299L421.555 123.308L429.159 124.241L429.949 109.154C429.976 108.651 430.163 108.201 430.51 107.804C430.858 107.377 431.288 107.103 431.799 106.981L443.048 104.59C443.171 104.507 443.469 104.478 443.942 104.503C444.445 104.53 444.89 104.805 445.278 105.33C445.695 105.856 445.889 106.415 445.858 107.006L444.906 125.155Z" fill="white"/>
	</g>
</svg>
